<?xml version="1.0" encoding="utf-8"?><svg xmlns="http://www.w3.org/2000/svg" xmlns:xlink="http://www.w3.org/1999/xlink"><symbol viewBox="-20 -20 552 552" id="lang-ar" xmlns="http://www.w3.org/2000/svg"><path fill="#f0f0f0" d="M-128.375 0h767.992v512h-767.992z"/><path fill="#6da544" d="M-128.375 0h767.992v170.661h-767.992z"/><path d="M-128.375 341.323h767.992v170.661h-767.992z"/><path fill="#a2001d" d="M-128.375 0h255.992v512h-255.992z"/></symbol><symbol viewBox="-20 -20 552 552" id="lang-de" xmlns="http://www.w3.org/2000/svg"><g stroke-width="1.5"><path fill="#d80027" d="M-128.38 0h767.99v512h-767.99z"/><path d="M-128.38 0h767.99v170.66h-767.99z"/><path fill="#ffda44" d="M-128.38 341.32h767.99v170.66h-767.99z"/></g></symbol><symbol viewBox="-20 -20 552 381" id="lang-ru" xmlns="http://www.w3.org/2000/svg"><path fill="#f0f0f0" d="M512 113.666V0H0v340.988h512V227.322z"/><path fill="#0052b4" d="M0 .003h512v341H0z"/><path fill="#fff" d="M0 .003h512v113.66H0z"/><path fill="#d80027" d="M0 227.33h512v113.66H0z"/></symbol><symbol viewBox="-20 -20 552 552" id="lang-uk" xmlns="http://www.w3.org/2000/svg"><path fill="#f0f0f0" d="M-128.38.004H639.6v512h-767.98z"/><path fill="#d80027" d="M207.62 304.01V512h96V304.01h336v-96h-336V.005h-96V208.01h-336v96z"/><path d="M639.62 345.05H462.29l177.33 98.505zm0 166.95v-47.205L424.085 345.05h-84.99zm-300.525 0h220.47l-220.47-122.49z" fill="#0052b4"/><path fill="#f0f0f0" d="M639.62 512v-47.205L424.085 345.05h-84.99z"/><path fill="#d80027" d="M639.62 512v-47.205L424.085 345.05h-84.99z"/><path d="M-128.38 345.05H7.131l-135.511 75.285zM-90.143 512l262.288-145.725V512z" fill="#0052b4"/><path fill="#d80027" d="M87.155 345.05L-128.38 464.795V512l300.525-166.95z"/><path d="M-128.38 166.955H48.95L-128.38 68.45zm0-166.95V47.21L87.155 166.955h84.99zm300.525 0H-48.331l220.476 122.49z" fill="#0052b4"/><path fill="#f0f0f0" d="M-128.38.005V47.21L87.155 166.955h84.99z"/><path fill="#d80027" d="M-128.38.005V47.21L87.155 166.955h84.99z"/><path d="M639.62 166.97H504.11l135.51-75.285zM601.385.007L339.095 145.73V.006z" fill="#0052b4"/><path fill="#d80027" d="M424.085 166.955L639.62 47.21V.005l-300.525 166.95z"/></symbol><symbol viewBox="-20 -20 552 552" id="lang-us" xmlns="http://www.w3.org/2000/svg"><path fill="#f0f0f0" d="M-128.38 0h767.99v512h-767.99z"/><path d="M-128.38 63.985h768v63.994h-768zm0 128.01h768v63.994h-768zm0 127.995h768v63.995h-768zm0 127.995h768v63.995h-768z" fill="#d80027"/><path fill="#2e52b2" d="M-128.38 0h384v275.69h-384z"/><path d="M21.353 150.985l16.182 11.76-6.195-19.035 16.2-11.745H27.53l-6.177-19.035-6.184 19.035H-4.835L11.35 143.71l-6.184 19.035zM5.167 231.4l16.186-11.76 16.182 11.76-6.195-19.02 16.2-11.76H27.53l-6.177-19.02-6.184 19.02H-4.835l16.186 11.76zm-84.543 0l16.186-11.76 16.178 11.76-6.183-19.02 16.183-11.76h-20.002l-6.176-19.02-6.184 19.02h-20.004l16.186 11.76zm16.186-80.415l16.177 11.76-6.183-19.035 16.184-11.745h-20.003l-6.175-19.035-6.184 19.035H-89.38l16.187 11.745-6.185 19.035zM21.353 82.33l16.182 11.745-6.195-19.02 16.2-11.745H27.53l-6.177-19.035-6.184 19.035H-4.835L11.35 75.055l-6.184 19.02zm-84.543 0l16.177 11.745-6.183-19.02 16.184-11.745h-20.003l-6.175-19.035-6.184 19.035H-89.38l16.187 11.745-6.185 19.02zm169.08 68.655l16.185 11.76-6.18-19.035 16.185-11.745h-20.01l-6.18-19.035-6.18 19.035H79.7l16.2 11.745-6.195 19.035zM89.705 231.4l16.185-11.76 16.185 11.76-6.18-19.02 16.185-11.76h-20.01l-6.18-19.02-6.18 19.02H79.7l16.2 11.76zm84.555 0l16.185-11.76 16.17 11.76-6.18-19.02 16.185-11.76h-20.01l-6.165-19.02-6.195 19.02h-19.995l16.185 11.76zm16.185-80.415l16.17 11.76-6.18-19.035 16.185-11.745h-20.01l-6.165-19.035-6.195 19.035h-19.995l16.185 11.745-6.18 19.035zM105.89 82.33l16.185 11.745-6.18-19.02L132.08 63.31h-20.01l-6.18-19.035-6.18 19.035H79.7l16.2 11.745-6.195 19.02zm84.555 0l16.17 11.745-6.18-19.02L216.62 63.31h-20.01l-6.165-19.035-6.195 19.035h-19.995l16.185 11.745-6.18 19.02z" fill="#f0f0f0"/></symbol><view id="lang-ar-view" viewBox="0 0 32 32"/>
<view id="lang-de-view" viewBox="0 32 32 32"/>
<view id="lang-ru-view" viewBox="0 64 32 32"/>
<view id="lang-uk-view" viewBox="0 96 32 32"/>
<view id="lang-us-view" viewBox="0 128 32 32"/><use xlink:href="#lang-ar" id="lang-ar" width="32" height="32" x="0" y="0"/>
<use xlink:href="#lang-de" id="lang-de" width="32" height="32" x="0" y="32"/>
<use xlink:href="#lang-ru" id="lang-ru" width="32" height="32" x="0" y="64"/>
<use xlink:href="#lang-uk" id="lang-uk" width="32" height="32" x="0" y="96"/>
<use xlink:href="#lang-us" id="lang-us" width="32" height="32" x="0" y="128"/></svg>