<?xml version="1.0" encoding="UTF-8" standalone="no"?>
<!-- Generator: Adobe Illustrator 19.0.0, SVG Export Plug-In . SVG Version: 6.00 Build 0)  -->

<svg
   xmlns:dc="http://purl.org/dc/elements/1.1/"
   xmlns:cc="http://creativecommons.org/ns#"
   xmlns:rdf="http://www.w3.org/1999/02/22-rdf-syntax-ns#"
   xmlns:svg="http://www.w3.org/2000/svg"
   xmlns="http://www.w3.org/2000/svg"
   xmlns:sodipodi="http://sodipodi.sourceforge.net/DTD/sodipodi-0.dtd"
   xmlns:inkscape="http://www.inkscape.org/namespaces/inkscape"
   version="1.1"
   id="Capa_1"
   x="0px"
   y="0px"
   viewBox="0 0 512 512"
   xml:space="preserve"
   sodipodi:docname="ar.svg"
   width="512"
   height="341"
   inkscape:version="0.92.4 5da689c313, 2019-01-14"><metadata
   id="metadata45"><rdf:RDF><cc:Work
       rdf:about=""><dc:format>image/svg+xml</dc:format><dc:type
         rdf:resource="http://purl.org/dc/dcmitype/StillImage" /><dc:title></dc:title></cc:Work></rdf:RDF></metadata><defs
   id="defs43" /><sodipodi:namedview
   pagecolor="#ffffff"
   bordercolor="#666666"
   borderopacity="1"
   objecttolerance="10"
   gridtolerance="10"
   guidetolerance="10"
   inkscape:pageopacity="0"
   inkscape:pageshadow="2"
   inkscape:window-width="1920"
   inkscape:window-height="1131"
   id="namedview41"
   showgrid="false"
   inkscape:zoom="0.4609375"
   inkscape:cx="-248.40678"
   inkscape:cy="256"
   inkscape:window-x="0"
   inkscape:window-y="0"
   inkscape:window-maximized="1"
   inkscape:current-layer="Capa_1" />
<rect
   y="0"
   style="fill:#f0f0f0;stroke-width:1.49998391"
   width="767.99176"
   height="512"
   id="rect2"
   x="-128.37537" />
<rect
   y="0"
   style="fill:#6da544;stroke-width:1.49998391"
   width="767.99176"
   height="170.66066"
   id="rect4"
   x="-128.37537" />
<rect
   y="341.32281"
   width="767.99176"
   height="170.66066"
   id="rect6"
   x="-128.37537"
   style="stroke-width:1.49998391" />
<rect
   y="0"
   style="fill:#a2001d;stroke-width:1.49998391"
   width="255.99174"
   height="512"
   id="rect8"
   x="-128.37537" />
<g
   id="g10"
   transform="matrix(1.4999839,0,0,1.4999839,-128.37537,-127.99513)">
</g>
<g
   id="g12"
   transform="matrix(1.4999839,0,0,1.4999839,-128.37537,-127.99513)">
</g>
<g
   id="g14"
   transform="matrix(1.4999839,0,0,1.4999839,-128.37537,-127.99513)">
</g>
<g
   id="g16"
   transform="matrix(1.4999839,0,0,1.4999839,-128.37537,-127.99513)">
</g>
<g
   id="g18"
   transform="matrix(1.4999839,0,0,1.4999839,-128.37537,-127.99513)">
</g>
<g
   id="g20"
   transform="matrix(1.4999839,0,0,1.4999839,-128.37537,-127.99513)">
</g>
<g
   id="g22"
   transform="matrix(1.4999839,0,0,1.4999839,-128.37537,-127.99513)">
</g>
<g
   id="g24"
   transform="matrix(1.4999839,0,0,1.4999839,-128.37537,-127.99513)">
</g>
<g
   id="g26"
   transform="matrix(1.4999839,0,0,1.4999839,-128.37537,-127.99513)">
</g>
<g
   id="g28"
   transform="matrix(1.4999839,0,0,1.4999839,-128.37537,-127.99513)">
</g>
<g
   id="g30"
   transform="matrix(1.4999839,0,0,1.4999839,-128.37537,-127.99513)">
</g>
<g
   id="g32"
   transform="matrix(1.4999839,0,0,1.4999839,-128.37537,-127.99513)">
</g>
<g
   id="g34"
   transform="matrix(1.4999839,0,0,1.4999839,-128.37537,-127.99513)">
</g>
<g
   id="g36"
   transform="matrix(1.4999839,0,0,1.4999839,-128.37537,-127.99513)">
</g>
<g
   id="g38"
   transform="matrix(1.4999839,0,0,1.4999839,-128.37537,-127.99513)">
</g>
</svg>