<?xml version="1.0" encoding="UTF-8"?>
<svg width="512" height="341" version="1.1" viewBox="0 0 512 512" xml:space="preserve" xmlns="http://www.w3.org/2000/svg">
	<rect x="-128.38" y=".0044861" width="767.98" height="512" fill="#f0f0f0" stroke-width="1.5"/>
	<polygon transform="matrix(1.5 0 0 1.5 -128.38 -127.99)" points="224 288 224 426.66 288 426.66 288 288 512 288 512 224 288 224 288 85.33 224 85.33 224 224 0 224 0 288" fill="#d80027"/>
	<g transform="matrix(1.5 0 0 1.5 -128.38 -127.99)" fill="#0052b4">
		<polygon points="512 315.36 393.78 315.36 512 381.03"/>
		<polygon points="512 426.66 512 395.19 368.31 315.36 311.65 315.36"/>
		<polygon points="311.65 426.66 458.63 426.66 311.65 345"/>
	</g>
	<polygon transform="matrix(1.5 0 0 1.5 -128.38 -127.99)" points="512 426.66 512 395.19 368.31 315.36 311.65 315.36" fill="#f0f0f0"/>
	<polygon transform="matrix(1.5 0 0 1.5 -128.38 -127.99)" points="512 426.66 512 395.19 368.31 315.36 311.65 315.36" fill="#d80027"/>
	<g transform="matrix(1.5 0 0 1.5 -128.38 -127.99)" fill="#0052b4">
		<polygon points="0 315.36 90.341 315.36 0 365.55"/>
		<polygon points="25.491 426.66 200.35 329.51 200.35 426.66"/>
	</g>
	<polygon transform="matrix(1.5 0 0 1.5 -128.38 -127.99)" points="143.69 315.36 0 395.19 0 426.66 200.35 315.36" fill="#d80027"/>
	<g transform="matrix(1.5 0 0 1.5 -128.38 -127.99)" fill="#0052b4">
		<polygon points="0 196.63 118.22 196.63 0 130.96"/>
		<polygon points="0 85.33 0 116.8 143.69 196.63 200.35 196.63"/>
		<polygon points="200.35 85.33 53.366 85.33 200.35 166.99"/>
	</g>
	<polygon transform="matrix(1.5 0 0 1.5 -128.38 -127.99)" points="0 85.33 0 116.8 143.69 196.63 200.35 196.63" fill="#f0f0f0"/>
	<polygon transform="matrix(1.5 0 0 1.5 -128.38 -127.99)" points="0 85.33 0 116.8 143.69 196.63 200.35 196.63" fill="#d80027"/>
	<g transform="matrix(1.5 0 0 1.5 -128.38 -127.99)" fill="#0052b4">
		<polygon points="512 196.64 421.66 196.64 512 146.45"/>
		<polygon points="486.51 85.331 311.65 182.48 311.65 85.331"/>
	</g>
	<polygon transform="matrix(1.5 0 0 1.5 -128.38 -127.99)" points="368.31 196.63 512 116.8 512 85.33 311.65 196.63" fill="#d80027"/>
</svg>
