<?xml version="1.0" encoding="UTF-8"?>
<svg width="512" height="341" version="1.1" viewBox="0 0 512 512" xml:space="preserve" xmlns="http://www.w3.org/2000/svg">
<rect x="-128.38" width="767.99" height="512" fill="#f0f0f0" stroke-width="1.5"/>
<g transform="matrix(1.5 0 0 1.5 -128.38 -128)" fill="#d80027">
	<rect y="127.99" width="512" height="42.663"/>
	<rect y="213.33" width="512" height="42.663"/>
	<rect y="298.66" width="512" height="42.663"/>
	<rect y="383.99" width="512" height="42.663"/>
</g>
<rect x="-128.38" width="384" height="275.69" fill="#2e52b2" stroke-width="1.5"/>
<g transform="matrix(1.5 0 0 1.5 -128.38 -128)" fill="#f0f0f0">
	<polygon points="99.822 185.99 110.61 193.83 106.48 181.14 117.28 173.31 103.94 173.31 99.822 160.62 95.699 173.31 82.363 173.31 93.154 181.14 89.031 193.83"/>
	<polygon points="89.031 239.6 99.822 231.76 110.61 239.6 106.48 226.92 117.28 219.08 103.94 219.08 99.822 206.4 95.699 219.08 82.363 219.08 93.154 226.92"/>
	<polygon points="32.669 239.6 43.46 231.76 54.245 239.6 50.123 226.92 60.912 219.08 47.577 219.08 43.46 206.4 39.337 219.08 26.001 219.08 36.792 226.92"/>
	<polygon points="43.46 185.99 54.245 193.83 50.123 181.14 60.912 173.31 47.577 173.31 43.46 160.62 39.337 173.31 26.001 173.31 36.792 181.14 32.669 193.83"/>
	<polygon points="99.822 140.22 110.61 148.05 106.48 135.37 117.28 127.54 103.94 127.54 99.822 114.85 95.699 127.54 82.363 127.54 93.154 135.37 89.031 148.05"/>
	<polygon points="43.46 140.22 54.245 148.05 50.123 135.37 60.912 127.54 47.577 127.54 43.46 114.85 39.337 127.54 26.001 127.54 36.792 135.37 32.669 148.05"/>
	<polygon points="156.18 185.99 166.97 193.83 162.85 181.14 173.64 173.31 160.3 173.31 156.18 160.62 152.06 173.31 138.72 173.31 149.52 181.14 145.39 193.83"/>
	<polygon points="145.39 239.6 156.18 231.76 166.97 239.6 162.85 226.92 173.64 219.08 160.3 219.08 156.18 206.4 152.06 219.08 138.72 219.08 149.52 226.92"/>
	<polygon points="201.76 239.6 212.55 231.76 223.33 239.6 219.21 226.92 230 219.08 216.66 219.08 212.55 206.4 208.42 219.08 195.09 219.08 205.88 226.92"/>
	<polygon points="212.55 185.99 223.33 193.83 219.21 181.14 230 173.31 216.66 173.31 212.55 160.62 208.42 173.31 195.09 173.31 205.88 181.14 201.76 193.83"/>
	<polygon points="156.18 140.22 166.97 148.05 162.85 135.37 173.64 127.54 160.3 127.54 156.18 114.85 152.06 127.54 138.72 127.54 149.52 135.37 145.39 148.05"/>
	<polygon points="212.55 140.22 223.33 148.05 219.21 135.37 230 127.54 216.66 127.54 212.55 114.85 208.42 127.54 195.09 127.54 205.88 135.37 201.76 148.05"/>
</g>















</svg>
