<svg id="Layer_5" enable-background="new 0 0 64 64" height="512" viewBox="0 0 64 64" width="512" xmlns="http://www.w3.org/2000/svg"><path d="m35 31c-5.514 0-10 4.486-10 10s4.486 10 10 10 10-4.486 10-10-4.486-10-10-10zm0 18c-4.411 0-8-3.589-8-8s3.589-8 8-8 8 3.589 8 8-3.589 8-8 8z"/><path d="m55.137 54.005-7.81-6.376c1.066-1.975 1.673-4.232 1.673-6.629 0-7.72-6.28-14-14-14-5.096 0-9.551 2.745-12 6.826v-6.826h1c1.654 0 3-1.346 3-3v-2c0-1.654-1.346-3-3-3h-1v-5c0-1.654-1.346-3-3-3h-12c-1.654 0-3 1.346-3 3v5h-1c-1.654 0-3 1.346-3 3v2c0 1.654 1.346 3 3 3h1v27c0 4.963 4.038 9 9 9s9-4.037 9-9v-5.826c2.449 4.081 6.904 6.826 12 6.826 2.397 0 4.654-.607 6.628-1.673l6.375 7.809c.968 1.184 2.399 1.864 3.928 1.864 2.795 0 5.069-2.274 5.069-5.069 0-1.529-.679-2.959-1.863-3.926zm-48.137-40.005c0-.552.449-1 1-1h12c.551 0 1 .448 1 1v5h-14zm-4 10v-2c0-.552.449-1 1-1h20c.551 0 1 .448 1 1v2c0 .552-.449 1-1 1h-20c-.551 0-1-.448-1-1zm18 3v2h-6v2h6v2h-4v2h4v2h-6v2h6v2h-4v2h4v2.131c-1.169.282-2.364 1-3.604 1.818-1.679-1.449-3.997-2.949-6.396-2.949-1.582 0-2.961.496-4 1.186v-18.186zm-14 21.019c.069-.418 1.464-2.019 4-2.019 1.341 0 2.967.739 4.659 2.104-1.57 1.017-3.159 1.896-4.659 1.896-2.536 0-3.931-1.601-4-1.976zm7 12.981c-3.86 0-7-3.141-7-7v-3.186c1.039.69 2.418 1.186 4 1.186 2.448 0 4.778-1.561 6.833-2.938 1.142-.765 2.236-1.494 3.167-1.844v6.782c0 3.859-3.14 7-7 7zm9-20c0-6.617 5.383-12 12-12s12 5.383 12 12-5.383 12-12 12-12-5.383-12-12zm28.931 20c-.926 0-1.792-.411-2.378-1.129l-6.235-7.637c1.11-.824 2.092-1.806 2.916-2.916l7.638 6.235c.717.586 1.128 1.453 1.128 2.378 0 1.692-1.376 3.069-3.069 3.069z"/><circle cx="52" cy="58" r="1"/><path d="m39.293 37.293-6.293 6.293-2.293-2.293-1.414 1.414 3.707 3.707 7.707-7.707z"/><path d="m60 5h-6.35c-.826-2.327-3.043-4-5.65-4s-4.824 1.673-5.65 4h-6.35c-1.654 0-3 1.346-3 3v12c0 1.654 1.346 3 3 3h10v3.146c0 1.574 1.28 2.854 2.854 2.854 1.088 0 2.066-.604 2.553-1.578l2.211-4.422h6.382c1.654 0 3-1.346 3-3v-12c0-1.654-1.346-3-3-3zm-12-2c2.206 0 4 1.794 4 4s-1.794 4-4 4-4-1.794-4-4 1.794-4 4-4zm-13 17v-12c0-.552.449-1 1-1h6c0 1.888.879 3.573 2.246 4.674-3.92 1.43-6.805 5.018-7.196 9.326h-1.05c-.551 0-1-.448-1-1zm17.382 1-2.764 5.527c-.145.292-.438.473-.764.473-.471 0-.854-.384-.854-.854v-5.146h-8.941c.5-4.493 4.317-8 8.941-8s8.442 3.507 8.941 8zm8.618-1c0 .552-.449 1-1 1h-1.051c-.391-4.308-3.276-7.897-7.196-9.326 1.368-1.101 2.247-2.786 2.247-4.674h6c.551 0 1 .448 1 1z"/><path d="m51 31h10v2h-10z"/><path d="m51 35h10v2h-10z"/><path d="m51 39h2v2h-2z"/><path d="m55 39h2v2h-2z"/><path d="m59 39h2v2h-2z"/></svg>