<?xml version="1.0" encoding="iso-8859-1"?>
<!-- Generator: Adobe Illustrator 19.0.0, SVG Export Plug-In . SVG Version: 6.00 Build 0)  -->
<svg version="1.1" id="Capa_1" xmlns="http://www.w3.org/2000/svg" xmlns:xlink="http://www.w3.org/1999/xlink" x="0px" y="0px"
	 viewBox="0 0 471.04 471.04" style="enable-background:new 0 0 471.04 471.04;" xml:space="preserve">
<g>
	<g>
		<path d="M343.04,10.24V51.2c0,22.528,18.432,40.96,40.96,40.96h40.96L343.04,10.24z"/>
	</g>
</g>
<g>
	<g>
		<path d="M384,112.64c-33.792,0-61.44-27.648-61.44-61.44V0H179.2C151.04,0,128,23.04,128,51.2v358.4c0,28.16,23.04,51.2,51.2,51.2
			h51.712c27.648,0,50.688-22.528,50.688-50.688v-51.2c0-28.672,23.04-51.712,51.712-51.712h51.712
			c27.648,0,50.688-22.528,50.688-50.688V112.64H384z M179.2,40.96h102.4c5.632,0,10.24,4.608,10.24,10.24s-4.608,10.24-10.24,10.24
			H179.2c-5.632,0-10.24-4.608-10.24-10.24S173.568,40.96,179.2,40.96z M384,266.24H179.2c-5.632,0-10.24-4.608-10.24-10.24
			c0-5.632,4.608-10.24,10.24-10.24H384c5.632,0,10.24,4.608,10.24,10.24C394.24,261.632,389.632,266.24,384,266.24z M384,215.04
			H179.2c-5.632,0-10.24-4.608-10.24-10.24c0-5.632,4.608-10.24,10.24-10.24H384c5.632,0,10.24,4.608,10.24,10.24
			C394.24,210.432,389.632,215.04,384,215.04z M384,163.84H179.2c-5.632,0-10.24-4.608-10.24-10.24c0-5.632,4.608-10.24,10.24-10.24
			H384c5.632,0,10.24,4.608,10.24,10.24C394.24,159.232,389.632,163.84,384,163.84z"/>
	</g>
</g>
<g>
	<g>
		<path d="M107.52,409.6V266.24H76.8c-5.632,0-10.24-4.608-10.24-10.24c0-5.632,4.608-10.24,10.24-10.24h30.72v-30.72H76.8
			c-5.632,0-10.24-4.608-10.24-10.24c0-5.632,4.608-10.24,10.24-10.24h30.72v-30.72H76.8c-5.632,0-10.24-4.608-10.24-10.24
			c0-5.632,4.608-10.24,10.24-10.24h30.72V61.44H76.8c-5.632,0-10.24-4.608-10.24-10.24s4.608-10.24,10.24-10.24h31.744
			c3.072-16.896,12.8-31.744,26.624-40.96H76.8C48.64,0,25.6,23.04,25.6,51.2v358.4c0,28.16,23.04,51.2,51.2,51.2h51.712
			c2.048,0,4.096,0,5.632-0.512C118.272,449.536,107.52,430.592,107.52,409.6z"/>
	</g>
</g>
<g>
	<g>
		<path d="M435.2,399.36h-40.96V358.4c0-5.632-4.608-10.24-10.24-10.24c-5.632,0-10.24,4.608-10.24,10.24v40.96H332.8
			c-5.632,0-10.24,4.608-10.24,10.24c0,5.632,4.608,10.24,10.24,10.24h40.96v40.96c0,5.632,4.608,10.24,10.24,10.24
			c5.632,0,10.24-4.608,10.24-10.24v-40.96h40.96c5.632,0,10.24-4.608,10.24-10.24C445.44,403.968,440.832,399.36,435.2,399.36z"/>
	</g>
</g>
<g>
</g>
<g>
</g>
<g>
</g>
<g>
</g>
<g>
</g>
<g>
</g>
<g>
</g>
<g>
</g>
<g>
</g>
<g>
</g>
<g>
</g>
<g>
</g>
<g>
</g>
<g>
</g>
<g>
</g>
</svg>
