<?xml version="1.0" encoding="UTF-8"?>
<!DOCTYPE svg PUBLIC "-//W3C//DTD SVG 1.1//EN" "http://www.w3.org/Graphics/SVG/1.1/DTD/svg11.dtd">
<!-- Creator: CorelDRAW 2017 -->
<svg xmlns="http://www.w3.org/2000/svg" xml:space="preserve" width="210mm" height="297mm" version="1.1" style="shape-rendering:geometricPrecision; text-rendering:geometricPrecision; image-rendering:optimizeQuality; fill-rule:evenodd; clip-rule:evenodd"
viewBox="0 0 21000 29700"
 xmlns:xlink="http://www.w3.org/1999/xlink">
 <defs>
  <style type="text/css">
   <![CDATA[
    .fil0 {fill:black}
   ]]>
  </style>
 </defs>
 <g id="Слой_x0020_1">
  <metadata id="CorelCorpID_0Corel-Layer"/>
  <path class="fil0" d="M14714.74 8563.01c-1623.02,0.43 -3101.65,615.73 -4216.04,1625.19 -1115.26,-1009.02 -2593.02,-1623.89 -4213.88,-1623.89 -13.44,0 -26.88,0 -40.33,0 -3450.71,22.55 -6244.49,2829.77 -6244.49,6285.26 0,3469.79 2815.9,6284.82 6284.82,6284.82 1620.85,0 3098.18,-614.87 4213.44,-1623.89 -232.85,-210.3 -443.59,-443.16 -642.62,-686.85l1298.25 0c-195.99,240.22 -409.77,464.84 -638.28,672.97l-1.3 0c0.43,0.87 0.43,0.87 0.43,0.87 -5.2,4.77 -10.84,8.24 -16.04,13.44 1114.83,1010.76 2595.19,1626.06 4218.65,1625.62 3471.53,-0.87 6283.52,-2815.9 6282.66,-6286.56 0,-1.3 0,-2.17 0,-3.04 -0.88,-3470.64 -2815.48,-6283.94 -6285.27,-6283.94zm-6162.12 7817.93l82.42 -559.13c-44.9,0 -111.02,19.08 -169.3,19.08 -228.38,0 -253.82,-121.61 -238.98,-211.65l184.5 -1141.26 347.27 0 83.91 -618.84 -327.3 0 66.75 -384.32 -656.74 0c-14.2,14.36 -387.68,2163.69 -387.68,2424.87 0,387.5 216.75,560.13 523.05,557.59 239.33,-2.21 426.42,-68.52 492.1,-86.34zm208.24 -1066.26c0,929.85 612.04,1151.02 1133.86,1151.02 481.77,0 693.4,-108.26 693.4,-108.26l115.91 -634.71c0,0 -366.28,162.73 -697.21,162.73 -704.87,0 -581.31,-527.07 -581.31,-527.07l1334.47 0c0,0 85.76,-426.67 85.76,-600.39 0,-433.26 -215.64,-961.63 -936.2,-961.63 -660.34,0.18 -1148.68,712.62 -1148.68,1518.31zm1151.46 -929.4c370.34,0 301.89,417.32 301.89,451.02l-728.8 0c-0.23,-42.97 68.69,-451.02 426.91,-451.02zm4157.03 1995.66l117.6 -718c0,0 -322.22,162.74 -543.2,162.74 -465.63,0 -652.31,-357.21 -652.31,-739.4 0,-777.1 400.63,-1204.63 847.03,-1204.63 334.34,0 602.93,188.55 602.93,188.55l107 -696.59c0,0 -398.09,-161.88 -739.16,-161.88 -758.02,0 -1495.71,658.24 -1495.71,1896.76 0,819.88 398.5,1362.41 1181.93,1362.41 221.33,0.11 573.89,-89.96 573.89,-89.96zm-9127.57 -2574.42c-450.18,0 -795.33,144.7 -795.33,144.7l-95.12 566.94c0,0 285.14,-115.67 715.43,-115.67 244.5,0 423.06,27.34 423.06,226.69 0,120.77 -21.79,165.44 -21.79,165.44 0,0 -192.57,-16.3 -281.96,-16.3 -567.57,0 -1164.15,242.78 -1164.15,975.38 0,576.66 391.06,709.26 633.66,709.26 463.33,0 662.45,-301.04 673.49,-302.35l-21.62 251.68 577.97 0 258.02 -1812.43c0,-768.61 -669.29,-793.34 -901.66,-793.34zm140.87 1474.92c12.5,110.8 -69.47,629.84 -464.8,629.84 -203.83,0 -256.99,-156.34 -256.99,-248.73 0,-179.88 97.66,-396.16 578.99,-396.16 111.65,-0.02 123.72,12.29 142.8,15.05zm1375.33 1167.71c147.67,0 992.98,37.96 992.98,-836.21 0,-817.35 -782.35,-656.1 -782.35,-984.48 0,-162.9 127.57,-215.05 360.54,-215.05 92.57,0 448.7,29.9 448.7,29.9l83.07 -581.3c0,0 -230.5,-51.29 -605.49,-51.29 -486.18,0 -978.77,193.64 -978.77,858.62 0,754.01 821.98,677.73 821.98,995.08 0,211.89 -229.87,229.26 -406.98,229.26 -305.9,0 -581.53,-105.31 -582.83,-100.43l-87.48 574.73c15.31,5.37 185.61,81.17 736.63,81.17zm13049.47 -3164.04l-141.31 880.49c0,0 -247.27,-341.7 -633.86,-341.7 -601.85,0 -1103.11,726.66 -1103.11,1562.01 0,539.19 267.14,1066.95 814.18,1066.95 393.4,0 610.99,-274.78 610.99,-274.78l-28.6 234.52 638.54 -0.02 501.88 -3128.89 -658.71 1.42zm-304.66 1717.54c0,347.25 -172,810.95 -527.75,810.95 -236.44,0 -346.8,-198.74 -346.8,-510.59 0,-509.74 228.41,-847.02 516.48,-847.02 236.67,0.07 358.07,163.18 358.07,546.66zm-17816.19 1412.64l400.19 -2362.19 58.26 2362.19 452.5 0 843.79 -2362.19 -373.91 2362.19 672.02 0 518.01 -3132.27 -1039.53 0 -647.22 1921.54 -33.69 -1921.54 -957.81 0 -525.2 3132.27 632.59 0 0 0zm10115.7 4.43c191.08,-1088.74 226.49,-1973.24 682.82,-1811.98 79.89,-421.2 156.78,-584.09 243.63,-762.66 0,0 -40.65,-8.66 -126.7,-8.66 -293.41,0 -511.45,402.51 -511.45,402.51l58.04 -369.5 -611.44 -0.01 -409.07 2550.3 674.17 0zm4081.78 -2613.2c-450.16,0 -795.1,144.7 -795.1,144.7l-94.9 566.94c0,0 284.51,-115.67 715.22,-115.67 244.26,0 423.29,27.34 423.29,226.69 0,120.77 -22.02,165.44 -22.02,165.44 0,0 -192.57,-16.3 -282.64,-16.3 -567.78,0 -1163.69,242.78 -1163.69,975.38 0,576.66 391.28,709.26 633.67,709.26 463.32,0 662.68,-301.04 673.27,-302.35l-21.42 251.68 578.37 0 257.85 -1812.43c0.22,-768.61 -668.85,-793.34 -901.9,-793.34zm141.11 1474.92c12.5,110.8 -69.09,629.84 -465.02,629.84 -203.6,0 -256.37,-156.34 -256.37,-248.73 0,-179.88 97.66,-396.16 578.13,-396.16 112.35,-0.02 123.99,12.29 143.26,15.05zm1288.71 1138.28c191.32,-1088.74 226.69,-1973.24 682.98,-1811.98 79.9,-421.2 156.78,-584.09 244.09,-762.66 0,0 -41.33,-8.66 -126.88,-8.66 -294.26,0 -511.61,402.51 -511.61,402.51l58.48 -369.5 -611.81 -0.01 -409.3 2550.13 674.1 -0.01 -0.05 0.18 0 0zm-7086.71 -5581.96l1194.18 0c176.92,212.91 340.39,437.95 487.82,672.97l-2130.35 0c136.15,-225.05 287.05,-455.3 448.35,-672.97zm-820.4 1333.36l2864.03 0c102.77,218.11 192.96,442.72 271.01,673.4l-3474.56 0.01c34.26,-65.04 155.67,-326.95 339.52,-673.41zm2510.2 6006.01l-2230.08 0c-135.29,-216.81 -262.34,-439.25 -371.17,-672.97l2967.23 0c-108.84,232.85 -230.69,456.6 -365.98,672.97z"/>
 </g>
</svg>
