<?xml version="1.0" encoding="iso-8859-1"?>
<!-- Generator: Adobe Illustrator 19.0.0, SVG Export Plug-In . SVG Version: 6.00 Build 0)  -->
<svg version="1.1" id="Layer_1" xmlns="http://www.w3.org/2000/svg" xmlns:xlink="http://www.w3.org/1999/xlink" x="0px" y="0px"
	 viewBox="0 0 480 480" style="enable-background:new 0 0 480 480;" xml:space="preserve">
<g>
	<g>
		<g>
			<path d="M424,128H232c-4.416,0-8,3.584-8,8s3.584,8,8,8h192c4.416,0,8-3.584,8-8S428.416,128,424,128z"/>
			<path d="M336,416H232c-4.416,0-8,3.584-8,8c0,4.416,3.584,8,8,8h104c4.416,0,8-3.584,8-8C344,419.584,340.416,416,336,416z"/>
			<path d="M424,224h-64c-4.416,0-8,3.584-8,8s3.584,8,8,8h64c4.416,0,8-3.584,8-8S428.416,224,424,224z"/>
			<path d="M232,240h96c4.416,0,8-3.584,8-8s-3.584-8-8-8h-96c-4.416,0-8,3.584-8,8S227.584,240,232,240z"/>
			<path d="M232,288h64c4.416,0,8-3.584,8-8c0-4.416-3.584-8-8-8h-64c-4.416,0-8,3.584-8,8C224,284.416,227.584,288,232,288z"/>
			<path d="M424,272h-96c-4.416,0-8,3.584-8,8c0,4.416,3.584,8,8,8h96c4.416,0,8-3.584,8-8C432,275.584,428.416,272,424,272z"/>
			<path d="M352,368H232c-4.416,0-8,3.584-8,8c0,4.416,3.584,8,8,8h120c4.416,0,8-3.584,8-8C360,371.584,356.416,368,352,368z"/>
			<path d="M232,192h64c4.416,0,8-3.584,8-8s-3.584-8-8-8h-64c-4.416,0-8,3.584-8,8S227.584,192,232,192z"/>
			<path d="M424,176h-96c-4.416,0-8,3.584-8,8s3.584,8,8,8h96c4.416,0,8-3.584,8-8S428.416,176,424,176z"/>
			<path d="M424,320h-64c-4.416,0-8,3.584-8,8c0,4.416,3.584,8,8,8h64c4.416,0,8-3.584,8-8C432,323.584,428.416,320,424,320z"/>
			<path d="M232,336h96c4.416,0,8-3.584,8-8c0-4.416-3.584-8-8-8h-96c-4.416,0-8,3.584-8,8C224,332.416,227.584,336,232,336z"/>
			<path d="M456,64H200c-13.232,0-24,10.768-24,24v368c0,2.816,0.576,5.488,1.472,8H24c-4.408,0-8-3.592-8-8V24c0-4.408,3.592-8,8-8
				h16v112c0,8.824,7.176,16,16,16h8c8.824,0,16-7.176,16-16V40c0-4.416-3.584-8-8-8s-8,3.584-8,8v88h-8V16h32v104
				c0,4.416,3.584,8,8,8s8-3.584,8-8V16h200c4.408,0,8,3.592,8,8v16c0,4.416,3.584,8,8,8c4.416,0,8-3.584,8-8V24
				c0-13.232-10.768-24-24-24H88H56H24C10.768,0,0,10.768,0,24v432c0,13.232,10.768,24,24,24h176h104h80
				c1.048,0,2.08-0.208,3.048-0.608c0.968-0.4,1.856-0.984,2.608-1.736l88-88c0.688-0.688,1.176-1.496,1.568-2.344
				c0.112-0.248,0.184-0.496,0.272-0.752c0.224-0.672,0.36-1.352,0.4-2.056c0.016-0.176,0.104-0.328,0.104-0.504V88
				C480,74.768,469.232,64,456,64z M392,452.688V400c0-4.408,3.592-8,8-8h52.688L392,452.688z M464,376h-64
				c-13.232,0-24,10.768-24,24v64h-72H200c-4.408,0-8-3.592-8-8V88c0-4.408,3.592-8,8-8h256c4.408,0,8,3.592,8,8V376z"/>
			<path d="M48,192h64c4.416,0,8-3.584,8-8s-3.584-8-8-8H48c-4.416,0-8,3.584-8,8S43.584,192,48,192z"/>
			<path d="M144,224H48c-4.416,0-8,3.584-8,8s3.584,8,8,8h96c4.416,0,8-3.584,8-8S148.416,224,144,224z"/>
			<path d="M48,288h64c4.416,0,8-3.584,8-8c0-4.416-3.584-8-8-8H48c-4.416,0-8,3.584-8,8C40,284.416,43.584,288,48,288z"/>
			<path d="M144,320H48c-4.416,0-8,3.584-8,8c0,4.416,3.584,8,8,8h96c4.416,0,8-3.584,8-8C152,323.584,148.416,320,144,320z"/>
			<path d="M48,384h64c4.416,0,8-3.584,8-8c0-4.416-3.584-8-8-8H48c-4.416,0-8,3.584-8,8C40,380.416,43.584,384,48,384z"/>
			<path d="M48,432h96c4.416,0,8-3.584,8-8c0-4.416-3.584-8-8-8H48c-4.416,0-8,3.584-8,8C40,428.416,43.584,432,48,432z"/>
		</g>
	</g>
</g>
<g>
</g>
<g>
</g>
<g>
</g>
<g>
</g>
<g>
</g>
<g>
</g>
<g>
</g>
<g>
</g>
<g>
</g>
<g>
</g>
<g>
</g>
<g>
</g>
<g>
</g>
<g>
</g>
<g>
</g>
</svg>
