<?xml version="1.0" encoding="iso-8859-1"?>
<!-- Generator: Adobe Illustrator 19.0.0, SVG Export Plug-In . SVG Version: 6.00 Build 0)  -->
<svg version="1.1" id="Capa_1" xmlns="http://www.w3.org/2000/svg" xmlns:xlink="http://www.w3.org/1999/xlink" x="0px" y="0px"
	 viewBox="0 0 512 512" style="enable-background:new 0 0 512 512;" xml:space="preserve">
<g>
	<g>
		<path d="M151,331v166c0,8.285,6.716,15,15,15h180c8.284,0,15-6.716,15-15V331H151z M316,451H196c-8.291,0-15-6.709-15-15
			c0-8.291,6.709-15,15-15h120c8.291,0,15,6.709,15,15C331,444.291,324.291,451,316,451z M316,391H196c-8.291,0-15-6.709-15-15
			c0-8.291,6.709-15,15-15h120c8.291,0,15,6.709,15,15C331,384.291,324.291,391,316,391z"/>
	</g>
</g>
<g>
	<g>
		<path d="M466,151h-15v-19.604C451,108.574,432.426,90,409.604,90h-27.393C291.402-0.809,294.441,0,286,0H136
			c-8.291,0-15,6.709-15,15v75h-18.604C79.574,90,61,108.574,61,131.397V151H45c-24.814,0-45,20.186-45,45v180
			c0,24.814,20.186,45,45,45h76v-90h-15c-8.291,0-15-6.709-15-15c0-8.291,6.709-15,15-15c8.158,0,292.089,0,300,0
			c8.291,0,15,6.709,15,15c0,8.291-6.709,15-15,15h-15v90h75c24.814,0,46-20.186,46-45V196C512,171.186,490.815,151,466,151z
			 M121,151H91v-19.603C91,125.113,96.112,120,102.397,120H121V151z M361,181H151c0-6.319,0-144.682,0-151h120v75
			c0,8.291,6.709,15,15,15c7.836,0,67.566,0,75,0C361,127.075,361,174.658,361,181z M391,120h18.604
			c6.284,0,11.396,5.113,11.396,11.397V151h-30V120z M436,271h-30c-8.291,0-15-6.709-15-15c0-8.291,6.709-15,15-15h30
			c8.291,0,15,6.709,15,15S444.291,271,436,271z"/>
	</g>
</g>
</svg>
