<svg height="512pt" viewBox="-120 0 512 512" width="512pt" xmlns="http://www.w3.org/2000/svg"><path d="m153.425781 210.957031h-9.777343v-9.777343c0-4.140626-3.355469-7.5-7.5-7.5-4.140626 0-7.5 3.359374-7.5 7.5v9.777343h-9.777344c-4.140625 0-7.5 3.359375-7.5 7.5 0 4.144531 3.359375 7.5 7.5 7.5h9.777344v9.777344c0 4.144531 3.359374 7.5 7.5 7.5 4.144531 0 7.5-3.355469 7.5-7.5v-9.777344h9.777343c4.144531 0 7.5-3.355469 7.5-7.5 0-4.140625-3.355469-7.5-7.5-7.5zm0 0"/><path d="m264.796875 209.949219c4.144531 0 7.5-3.355469 7.5-7.5v-87.8125c0-39.453125-32.097656-71.550781-71.550781-71.550781h-36.398438v-14.886719c0-15.550781-12.652344-28.199219-28.199218-28.199219-15.550782 0-28.199219 12.648438-28.199219 28.199219v14.886719h-36.398438c-39.453125 0-71.550781 32.101562-71.550781 71.554687v215.589844c0 36.972656 27.964844 67.519531 63.851562 71.640625v9.628906c0 4.140625 3.355469 7.5 7.5 7.5 4.144532 0 7.5-3.359375 7.5-7.5v-9.136719h29.152344v2.222657c0 4.691406 2.269532 8.855468 5.753906 11.492187v24.042969c0 9.71875 6.222657 18.003906 14.890626 21.097656v43.28125c0 4.144531 3.359374 7.5 7.5 7.5 4.144531 0 7.5-3.355469 7.5-7.5v-43.28125c8.671874-3.09375 14.894531-11.378906 14.894531-21.097656v-24.042969c3.484375-2.636719 5.75-6.800781 5.75-11.492187v-2.222657h29.152343v9.136719c0 4.140625 3.359376 7.5 7.5 7.5 4.144532 0 7.503907-3.359375 7.503907-7.5v-9.628906c35.882812-4.121094 63.847656-34.667969 63.847656-71.640625v-92.777344c0-4.144531-3.355469-7.5-7.5-7.5-4.140625 0-7.5 3.355469-7.5 7.5v23.207031c-9.132813 0-74.8125 0-83.171875 0 23.640625-22.074218 23.644531-59.339844 0-81.414062h83.171875v23.207031c0 4.140625 3.355469 7.496094 7.5 7.496094zm-141.84375-181.75c0-7.277344 5.917969-13.199219 13.195313-13.199219 7.277343 0 13.199218 5.921875 13.199218 13.199219v14.886719h-26.398437v-14.886719zm-107.953125 151.046875h83.175781c-23.644531 22.070312-23.648437 59.335937 0 81.410156-8.355469 0-74.085937 0-83.175781 0zm48.851562 207.507812c-27.59375-4.027344-48.851562-27.835937-48.851562-56.523437v-54.570313h23.394531v54.570313c0 15.746093 10.84375 29.003906 25.457031 32.703125zm44.152344.605469h-29.152344v-23.394531h29.152344zm35.539063 52.761719c0 4.074218-3.316407 7.390625-7.394531 7.390625-4.078126 0-7.394532-3.3125-7.394532-7.390625v-21.121094h14.785156v21.121094zm5.75-36.132813-26.285157.007813c0-15.003906 0-24.734375 0-40.03125h26.285157zm44.152343-16.628906h-29.152343v-23.394531h29.152343zm40.457032-57.128906v-54.570313h23.394531v54.570313c0 28.6875-21.257813 52.496093-48.851563 56.523437v-23.816406c14.613282-3.703125 25.457032-16.960938 25.457032-32.707031zm-15-54.570313v54.570313c0 10.332031-8.40625 18.734375-18.734375 18.734375-8.5625 0-123.042969 0-128.035157 0-10.332031 0-18.738281-8.402344-18.738281-18.734375v-54.570313zm-42.046875-55.707031c0 22.445313-18.261719 40.703125-40.707031 40.703125-22.445313 0-40.707032-18.257812-40.707032-40.703125s18.261719-40.707031 40.707032-40.707031c22.445312 0 40.707031 18.261718 40.707031 40.707031zm57.046875-55.710937v-13.769532c0-10.753906-8.75-19.503906-19.503906-19.503906h-60.75c-4.140626 0-7.5 3.355469-7.5 7.5s3.359374 7.5 7.5 7.5h60.75c2.484374 0 4.503906 2.019531 4.503906 4.503906v13.769532h-165.507813v-13.769532c0-2.484375 2.023438-4.503906 4.507813-4.503906h60.746094c4.140624 0 7.5-3.355469 7.5-7.5s-3.359376-7.5-7.5-7.5h-60.746094c-10.757813 0-19.507813 8.75-19.507813 19.503906v13.769532h-23.394531v-49.605469c0-31.179688 25.367188-56.550781 56.550781-56.550781h129.195313c31.183594 0 56.550781 25.371093 56.550781 56.550781v49.605469zm0 0"/></svg>