<svg id="Capa_1" enable-background="new 0 0 512 512" height="512" viewBox="0 0 512 512" width="512" xmlns="http://www.w3.org/2000/svg"><path d="m256 340c82.71 0 150-67.29 150-150s-67.29-150-150-150-149.999 67.29-149.999 150 67.289 150 149.999 150zm0-280c71.683 0 130 58.317 130 130s-58.317 130-130 130c-71.682 0-129.999-58.317-129.999-130s58.317-130 129.999-130z"/><path d="m256 0c-34.001 0-67.374 9.102-96.512 26.321-4.755 2.811-6.331 8.942-3.521 13.697s8.941 6.331 13.697 3.521c26.058-15.399 55.912-23.539 86.336-23.539 93.738 0 170 76.262 170 170 0 86.798-64.958 159.435-151.099 168.959-5.067.561-8.901 4.842-8.901 9.939v43.1c0 5.522 4.478 10 10 10h20c5.514 0 10 4.486 10 10s-4.486 10-10 10h-20c-5.522 0-10 4.478-10 10v30.002c0 5.514-4.486 10-10 10s-10-4.486-10-10v-30.002c0-5.522-4.478-10-10-10h-20c-5.514 0-10-4.486-10-10s4.486-10 10-10h20c5.522 0 10-4.478 10-10v-43.1c0-5.098-3.834-9.379-8.901-9.939-86.141-9.524-151.099-82.161-151.099-168.959 0-30.422 8.142-60.279 23.544-86.343 2.81-4.755 1.232-10.888-3.521-13.697-4.755-2.809-10.888-1.232-13.697 3.521-17.222 29.145-26.326 62.52-26.326 96.519 0 46.796 17.2 91.799 48.432 126.719 29.229 32.68 68.57 54.097 111.568 60.922v24.357h-10c-16.542 0-30 13.458-30 30s13.458 30 30 30h10v20.002c0 16.542 13.458 30 30 30s30-13.458 30-30v-20.002h10c16.542 0 30-13.458 30-30s-13.458-30-30-30h-10v-24.357c42.998-6.825 82.34-28.242 111.568-60.922 31.232-34.919 48.432-79.922 48.432-126.719 0-104.767-85.233-190-190-190z"/><path d="m122.321 70.405c1.869 1.558 4.139 2.317 6.396 2.317 2.864 0 5.709-1.226 7.688-3.599l.005-.006c3.535-4.242 2.959-10.545-1.283-14.081-4.244-3.534-10.551-2.958-14.087 1.284-3.535 4.243-2.962 10.549 1.281 14.085z"/></svg>