<svg id="Capa_1" enable-background="new 0 0 512 512" height="512" viewBox="0 0 512 512" width="512" xmlns="http://www.w3.org/2000/svg"><path d="m482 0h-103.6c-16.542 0-30 13.458-30 30s13.458 30 30 30h31.177l-64.143 64.143c-37.189-28.059-82.928-43.418-129.796-43.418-41.028 0-80.945 11.577-115.434 33.479-4.662 2.961-6.042 9.141-3.081 13.803s9.139 6.041 13.803 3.081c31.278-19.863 67.487-30.362 104.712-30.362 45.29 0 89.407 15.8 124.225 44.49 3.976 3.274 9.788 2.995 13.431-.646l87.496-87.497c2.859-2.86 3.716-7.162 2.168-10.898-1.548-3.738-5.195-6.175-9.24-6.175h-55.318c-5.514 0-10-4.486-10-10s4.486-10 10-10h103.6c5.514 0 10 4.486 10 10v103.6c0 5.514-4.486 10-10 10-5.515 0-10.001-4.486-10.001-10v-55.318c0-4.044-2.437-7.691-6.173-9.239-3.736-1.549-8.038-.692-10.898 2.167l-87.496 87.497c-3.642 3.643-3.922 9.455-.646 13.43 28.69 34.819 44.49 78.937 44.49 124.225 0 107.875-87.763 195.638-195.638 195.638s-195.638-87.763-195.638-195.638c0-37.225 10.5-73.436 30.365-104.719 2.96-4.663 1.581-10.842-3.081-13.803-4.663-2.961-10.841-1.582-13.803 3.082-21.903 34.494-33.481 74.412-33.481 115.44 0 57.599 22.43 111.75 63.159 152.479s94.88 63.159 152.479 63.159 111.75-22.43 152.479-63.159 63.159-94.88 63.159-152.479c0-46.868-15.359-92.606-43.418-129.796l64.142-64.142v31.176c0 16.542 13.458 30 30.001 30 16.542 0 30-13.458 30-30v-103.6c-.001-16.542-13.459-30-30.001-30z"/><path d="m215.638 472c96.847 0 175.638-78.791 175.638-175.638 0-46.916-18.269-91.022-51.441-124.196-33.173-33.172-77.28-51.441-124.197-51.441-96.847 0-175.638 78.791-175.638 175.637 0 96.847 78.791 175.638 175.638 175.638zm0-331.275c41.575 0 80.659 16.188 110.054 45.583 29.396 29.396 45.584 68.481 45.584 110.054 0 85.819-69.819 155.638-155.638 155.638s-155.638-69.819-155.638-155.638 69.819-155.637 155.638-155.637z"/><path d="m70.23 160.955c2.559 0 5.118-.977 7.071-2.929l.005-.005c3.905-3.905 3.903-10.234-.002-14.139-3.906-3.906-10.24-3.902-14.145.003s-3.905 10.237 0 14.142c1.953 1.951 4.512 2.928 7.071 2.928z"/></svg>