<?xml version="1.0"?>
<svg xmlns="http://www.w3.org/2000/svg" viewBox="0 0 128 128" width="512" height="512"><title>CRUTCH</title><g id="Layer_3" data-name="Layer 3"><path d="M33.2,95.831h5.25a1.75,1.75,0,0,0,0-3.5H33.2a1.75,1.75,0,1,0,0,3.5Z"/><path d="M60.15,1.45a4.811,4.811,0,0,0-3.6-1.4,4.948,4.948,0,0,0-3.31,1.38l-2.2,2.11a1.428,1.428,0,0,1-1.02.42H21.62a1.5,1.5,0,0,1-1.02-.41L18.4,1.43A4.928,4.928,0,0,0,15.09.05a4.85,4.85,0,0,0-3.6,1.4,4.938,4.938,0,0,0-1.5,3.56V8a8.456,8.456,0,0,0,6.16,8.13V43.46a1.938,1.938,0,0,0,.02.24l4.81,34.36a5.679,5.679,0,0,0,.26,10.3v8.72a1.761,1.761,0,0,0,1.06,1.61l8.27,3.54v14.56a5.626,5.626,0,0,0,.96,11.17h8.58a5.626,5.626,0,0,0,.96-11.17V102.23l8.27-3.54a1.746,1.746,0,0,0,1.06-1.61V88.35a5.675,5.675,0,0,0,.27-10.29l4.8-34.36a1.938,1.938,0,0,0,.02-.24V16.13A8.456,8.456,0,0,0,61.65,8V5.01A4.938,4.938,0,0,0,60.15,1.45ZM42.24,122.33a2.132,2.132,0,0,1-2.13,2.13H31.53a2.125,2.125,0,1,1,0-4.25h8.58A2.123,2.123,0,0,1,42.24,122.33Zm-8.17-5.62V102.83h3.5v13.88ZM46.9,95.93l-7.94,3.4H32.68l-7.94-3.4v-7.1H46.9Zm1.23-10.6H23.51a2.185,2.185,0,1,1,0-4.37H48.13a2.185,2.185,0,1,1,0,4.37Zm-16.7-7.87L27.28,47.79H44.37L40.22,77.46ZM51.99,43.33,47.22,77.46H43.75l4.36-31.18a1.755,1.755,0,0,0-.41-1.39,1.778,1.778,0,0,0-1.32-.6H25.27a1.746,1.746,0,0,0-1.32.6,1.725,1.725,0,0,0-.42,1.39l4.36,31.18H24.43L19.65,43.33V16.46h3.5V39.04a1.752,1.752,0,0,0,1.75,1.75H46.74a1.752,1.752,0,0,0,1.75-1.75V16.46h3.5Zm-7-6.04H26.65V16.46H44.99ZM58.15,8a4.963,4.963,0,0,1-4.95,4.96H18.45A4.966,4.966,0,0,1,13.49,8V5.01a1.485,1.485,0,0,1,2.49-1.06l2.19,2.12a5,5,0,0,0,3.45,1.39h28.4a4.984,4.984,0,0,0,3.45-1.39l2.2-2.12a1.481,1.481,0,0,1,2.48,1.06Z"/><path d="M89.529,95.831h5.25a1.75,1.75,0,0,0,0-3.5h-5.25a1.75,1.75,0,0,0,0,3.5Z"/><path d="M116.49,1.45a5,5,0,0,0-6.92-.02l-2.19,2.11a1.463,1.463,0,0,1-1.02.42H77.95a1.5,1.5,0,0,1-1.02-.41L74.74,1.43A4.953,4.953,0,0,0,71.42.05a4.85,4.85,0,0,0-3.6,1.4,4.978,4.978,0,0,0-1.5,3.56V8a8.465,8.465,0,0,0,6.17,8.13V43.46a1.924,1.924,0,0,0,.01.24l4.81,34.36a5.671,5.671,0,0,0,.26,10.29v8.73a1.761,1.761,0,0,0,1.06,1.61l8.27,3.54v14.56a5.627,5.627,0,0,0,.96,11.17h8.59a5.626,5.626,0,0,0,.95-11.17V102.23l8.28-3.54a1.761,1.761,0,0,0,1.06-1.61V88.35A5.678,5.678,0,0,0,107,78.06l4.8-34.36a.972.972,0,0,0,.02-.24V16.13A8.465,8.465,0,0,0,117.99,8V5.01A4.978,4.978,0,0,0,116.49,1.45ZM98.57,122.33a2.13,2.13,0,0,1-2.12,2.13H87.86a2.125,2.125,0,0,1,0-4.25h8.59A2.121,2.121,0,0,1,98.57,122.33Zm-8.17-5.62V102.83h3.5v13.88Zm12.84-20.78-7.95,3.4H89.01l-7.94-3.4v-7.1h22.17Zm1.23-10.6H79.84a2.185,2.185,0,1,1,0-4.37h24.63a2.185,2.185,0,0,1,0,4.37ZM87.76,77.46,83.61,47.79H100.7L96.55,77.46Zm15.79,0h-3.47l4.36-31.18a1.744,1.744,0,0,0-1.73-1.99H81.6a1.744,1.744,0,0,0-1.73,1.99l4.36,31.18H80.76L75.99,43.33V16.46h3.5V39.04a1.746,1.746,0,0,0,1.75,1.75h21.83a1.746,1.746,0,0,0,1.75-1.75V16.46h3.5V43.33ZM82.99,37.29V16.46h18.33V37.29ZM114.49,8a4.972,4.972,0,0,1-4.96,4.96H74.78A4.972,4.972,0,0,1,69.82,8V5.01a1.486,1.486,0,0,1,2.49-1.06l2.2,2.12a4.96,4.96,0,0,0,3.44,1.39h28.41a4.96,4.96,0,0,0,3.44-1.39L112,3.95a1.486,1.486,0,0,1,2.49,1.06Z"/></g></svg>
