<?xml version="1.0"?>
<svg xmlns="http://www.w3.org/2000/svg" viewBox="0 0 512 512" width="512" height="512"><g id="outline"><path d="M98.712,207.966l-23.334,17.5-6.238,4.159L27.578,208.845l-7.156,14.31,33.385,16.693-26.245,17.5,8.876,13.312L88,236v28h16V226.648a48.181,48.181,0,0,1,63.365,37.368A24.024,24.024,0,0,0,144,288v32a24.021,24.021,0,0,0,12.682,21.157,24.088,24.088,0,0,0-3.631,5.358,23.84,23.84,0,0,0-1.21,18.328l10.271,30.308a23.9,23.9,0,0,0,29.269,15.367,24.04,24.04,0,0,0,6.147,27.44l23.967,21.2a23.821,23.821,0,0,0,15.87,6.026q.745,0,1.5-.045A23.975,23.975,0,0,0,248,462.731V472a24.028,24.028,0,0,0,24,24h32a24.028,24.028,0,0,0,24-24v-7.235a24.022,24.022,0,0,0,33.071,1.21l23.967-21.2a24.039,24.039,0,0,0,6.147-27.44,23.91,23.91,0,0,0,29.27-15.368l10.272-30.308A24,24,0,0,0,415.7,341.223l-.567-.192,15.833-55.93,49.143-37.115A40.209,40.209,0,0,0,496,216.067V144H480v49.87l-12.348-7.408A24.122,24.122,0,0,1,456,165.882V112H440v53.882a40.2,40.2,0,0,0,19.42,34.3L480,212.53v3.537a24.126,24.126,0,0,1-9.535,19.152l-45.707,34.52-25.8-26.016a23.855,23.855,0,0,1-6.959-16.9V212l16-12a40.191,40.191,0,0,0,16-32V144H408v24a24.116,24.116,0,0,1-9.6,19.2L392,192V112H376v59.056l-2.732-1.367A23.868,23.868,0,0,1,360,148.223V128H344v20.223A39.782,39.782,0,0,0,366.111,184L376,188.944v37.88a39.753,39.753,0,0,0,11.6,28.165l27.432,27.663L399.955,335.9a24.023,24.023,0,0,0-29.844,15.21L359.842,381.42a23.948,23.948,0,0,0-1.221,9.408,23.9,23.9,0,0,0-15.99,6.01l-23.967,21.2a23.894,23.894,0,0,0-7.887,14.939A23.891,23.891,0,0,0,304,432H272c-.055,0-.109,0-.165,0a24.239,24.239,0,0,0,.12-4.266,23.843,23.843,0,0,0-8.053-16.509l-23.966-21.2a23.9,23.9,0,0,0-16-6.01,23.893,23.893,0,0,0-1.208-9.408L212.454,344.3a23.853,23.853,0,0,0-8.227-11.407A23.852,23.852,0,0,0,208,320V288a24.024,24.024,0,0,0-23.365-23.984A48.036,48.036,0,0,1,260.8,233.6L280,246.948V280h16V257.615l19.562,13.041,8.876-13.312-41.873-27.915,38.567-5.51-2.264-15.838-54.959,7.851-10.621-7.966a47.99,47.99,0,0,1,4.2-79.609l35.385,15.008,6.248-14.73-22.934-9.727,54.961-23.555-6.3-14.706L298.577,91.906l4.792-23.962,22.288-22.287L314.343,34.343,296.866,51.82,278.4,27.2l-12.8,9.6,21.854,29.139L280.73,99.555l-27.264,12.768a48.035,48.035,0,0,1-67.877-30.6l28.068-28.068L202.343,42.343,184,60.686V16H168V36.686L149.657,18.343,138.343,29.657,168,59.314V69.39a48,48,0,0,1-69.466,42.933L70.9,99.4,55.59,53.47,40.41,58.53,51.221,90.963,27.151,80.647l-6.3,14.706L76.63,119.259l2.037,1.019L51.738,137.229l8.524,13.542L95.19,128.784a47.977,47.977,0,0,1,3.522,79.182ZM375,386.556l10.27-30.306a8,8,0,0,1,10.145-5.01l15.153,5.136a8,8,0,0,1,5.009,10.144L405.3,396.827a8.009,8.009,0,0,1-10.146,5.009L380,396.7A8,8,0,0,1,375,386.556Zm-45.729,43.469,23.966-21.2a8.009,8.009,0,0,1,11.293.691l10.6,11.983a8.01,8.01,0,0,1-.69,11.293l-23.967,21.2a8.009,8.009,0,0,1-11.293-.69l-10.6-11.983h0A8.008,8.008,0,0,1,329.266,430.025ZM304,448a8.009,8.009,0,0,1,8,8v16a8.009,8.009,0,0,1-8,8H272a8.009,8.009,0,0,1-8-8V456a8.009,8.009,0,0,1,8-8Zm-74.666-45.991,23.967,21.2a8.009,8.009,0,0,1,.691,11.292l-10.6,11.984a8,8,0,0,1-11.292.691l-23.967-21.2a8.01,8.01,0,0,1-.691-11.293l10.6-11.982a8.008,8.008,0,0,1,11.293-.691Zm-21.762-22.266a8,8,0,0,1-5.009,10.145l-15.153,5.135a8.006,8.006,0,0,1-10.144-5.008l-10.272-30.308A8,8,0,0,1,172,349.563l15.153-5.135a8,8,0,0,1,10.145,5.009ZM192,288v32a8.009,8.009,0,0,1-8,8H168a8.009,8.009,0,0,1-8-8V288a8.009,8.009,0,0,1,8-8h16A8.009,8.009,0,0,1,192,288ZM133.653,163.818a63.892,63.892,0,0,0-10.875-30.429A64.469,64.469,0,0,0,176,100.5a64.469,64.469,0,0,0,53.222,32.893,64.281,64.281,0,0,0,1.608,74.564A64.454,64.454,0,0,0,176,240.891a64.454,64.454,0,0,0-54.83-32.938A63.579,63.579,0,0,0,133.653,163.818Z"/><circle cx="160" cy="160" r="16"/><rect x="184" y="176" width="16" height="16"/><rect x="184" y="136" width="16" height="16"/><rect x="152" y="192" width="16" height="16"/></g></svg>
