<svg id="Layer_1" enable-background="new 0 0 58.985 54.619" height="512" viewBox="0 0 58.985 54.619" width="512" xmlns="http://www.w3.org/2000/svg"><path d="m3.999 48c-2.243 0-4-2.636-4-6s1.757-6 4-6 4 2.636 4 6-1.757 6-4 6zm0-10c-.944 0-2 1.711-2 4s1.056 4 2 4 2-1.711 2-4-1.056-4-2-4z"/><path d="m25.999 6c-2.89 0-6-.938-6-3s3.11-3 6-3 6 .938 6 3-3.111 3-6 3zm-3.974-3c.257.327 1.627 1 3.975 1s3.717-.673 3.975-1c-.258-.327-1.628-1-3.975-1s-3.719.673-3.975 1zm7.983.054h.01z"/><path d="m38.669 54.619c-1.322 0-2.693-.103-4.111-.311-6.134-.896-12.424-3.464-17.713-7.229-.449-.319-.932-.603-1.442-.902-.314-.184-.628-.369-.937-.562-1.203-.754-4.5-.126-8.604 1.641-.447.19-.965.035-1.231-.37-.267-.405-.204-.943.149-1.276.752-.709 1.219-2.092 1.219-3.608 0-2.222-1.009-3.877-1.915-3.974-.441-.047-.799-.378-.878-.814s.138-.874.535-1.073c3.823-1.922 8.976-2.1 12.532-.43.261.123.522.251.783.379 1.181.579 2.297 1.127 3.496 1.214 2.229.148 4.423-.593 6.181-2.122 1.969-1.715 3.246-4.289 3.416-6.887.148-2.254-.954-4.353-2.875-5.476-4.582-2.677-9.231-9.521-7.257-20.003.096-.507.571-.856 1.076-.811.514.049.907.479.907.996.125.246 1.515 1 4 1 2.441 0 3.826-.728 4-1.038 0-.002 0-.004 0-.006.024-.543.455-.974 1.021-.956.543.012.978.456.978 1 0 .05-.002.099-.005.147-.253 6.086.812 8.467 1.289 9.215 7.41-2.367 16.052.334 21.218 6.707 5.349 6.6 5.978 16.986 1.529 25.258-.633 1.178-1.361 2.289-2.165 3.304-3.646 4.61-8.848 6.987-15.196 6.987zm-25.725-11.321c1.061 0 1.924.207 2.585.623.292.184.588.357.885.531.525.309 1.068.627 1.59.998 5.035 3.584 11.017 6.027 16.842 6.88 5.215.763 12.476.352 17.449-5.939.731-.924 1.394-1.937 1.972-3.011 4.078-7.581 3.535-17.061-1.321-23.051-4.778-5.896-12.833-8.311-19.584-5.882-.202.072-.604.143-1.055-.191-.41-.303-2.281-2.062-2.351-8.931-2.365.963-6.057.916-8.267-.155-.818 7.839 2.585 13.58 6.591 15.921 2.58 1.508 4.06 4.317 3.862 7.333-.208 3.165-1.702 6.177-4.099 8.264-2.163 1.885-4.872 2.812-7.639 2.608-1.586-.114-2.931-.774-4.231-1.412-.251-.123-.501-.246-.753-.364-2.521-1.184-6.004-1.271-9.008-.313.971 1.086 1.585 2.822 1.585 4.794 0 .844-.114 1.656-.326 2.397 2.103-.733 3.862-1.1 5.273-1.1z"/><path d="m38.669 54.619c-1.322 0-2.693-.103-4.111-.311-6.134-.896-12.424-3.464-17.713-7.229-.301-.214-.619-.404-.937-.595-.365-.219-.551-.644-.466-1.06.085-.417.425-.733.846-.79 3.652-.491 8.072-1.24 9.458-1.603 1.283-.335 2.44-.922 3.665-1.544 2.985-1.514 6.371-3.229 12.849-2.163 5.573.915 9.947.949 14.186.11.35-.074.713.054.949.324.235.27.308.646.19.983-.447 1.29-.971 2.495-1.556 3.584-.633 1.178-1.361 2.289-2.165 3.304-3.645 4.613-8.847 6.99-15.195 6.99zm-19.507-8.376c4.781 3.151 10.3 5.299 15.685 6.087 5.215.763 12.476.352 17.449-5.939.73-.924 1.394-1.937 1.972-3.011.286-.53.555-1.093.807-1.683-3.942.567-8.078.434-13.14-.399-5.833-.955-8.775.532-11.619 1.975-1.265.642-2.573 1.305-4.064 1.695-1.235.322-4.24.844-7.09 1.275z"/></svg>