<svg id="Layer_3" enable-background="new 0 0 64 64" height="512" viewBox="0 0 64 64" width="512" xmlns="http://www.w3.org/2000/svg"><path d="m63 32c0-7.999-6.132-14.979-15-17.239v-1.358c0-4.355-1.498-8.627-4.219-12.028-.296-.367-.808-.48-1.229-.27l-4 2c-.271.135-.465.385-.529.68s.007.604.195.84c2.147 2.683 3.442 5.972 3.721 9.383-3.432.013-6.887.755-9.94 2.177-3.646-1.698-7.883-2.411-11.944-2.096.266-3.44 1.561-6.759 3.725-9.464.188-.236.26-.545.195-.84s-.259-.545-.529-.68l-4-2c-.42-.21-.934-.098-1.229.27-2.719 3.401-4.217 7.673-4.217 12.028v1.962c-7.802 2.76-13 9.356-13 16.635 0 2.86.805 5.683 2.317 8.209-1.503 2.654-2.317 5.658-2.317 8.791v2c0 .553.447 1 1 1h4c.553 0 1-.447 1-1 0-1.935.36-3.81 1.017-5.57 2.569 1.969 5.639 3.345 8.983 4.044v5.526c0 .553.447 1 1 1h4c.553 0 1-.447 1-1v-4.597c0-.144.015-.287.018-.431 1.155-.049 2.301-.183 3.429-.394 1.028 3.438 1.553 6.993 1.553 10.589v2.833h2v-2.833c0-3.746-.539-7.449-1.597-11.032 1.24-.342 2.444-.783 3.597-1.32 1.152.536 2.357.978 3.597 1.32-1.058 3.583-1.597 7.286-1.597 11.032v2.833h2v-2.833c0-3.596.525-7.151 1.552-10.588 1.459.273 2.949.421 4.448.421 3.916 0 7.665-.913 10.955-2.644.022.348.045.697.045 1.047v4.597c0 .553.447 1 1 1h4c.553 0 1-.447 1-1v-6.597c0-1.17-.117-2.333-.328-3.476 2.786-3.123 4.328-6.979 4.328-10.927zm-20.293-28.735c2.129 2.935 3.293 6.504 3.293 10.138v5.597h-2v-3.597c0-3.944-1.229-7.821-3.482-11.044zm-26.707 10.138c0-3.635 1.164-7.203 3.293-10.139l2.189 1.095c-2.253 3.223-3.482 7.1-3.482 11.044v5.597h-2zm-10.973 36.597h-2.027v-1c0-4.247 1.654-8.24 4.657-11.243l1.54-1.54 2.114 1.058-1.068 1.068c-3.144 3.144-4.974 7.252-5.216 11.657zm15.973.403v3.597h-2v-5.597c0-3.635 1.164-7.203 3.293-10.139l2.189 1.095c-2.253 3.223-3.482 7.1-3.482 11.044zm21-2.403c-3.344 0-6.649-.757-9.559-2.19-.277-.137-.605-.137-.883 0-2.564 1.263-5.436 2-8.37 2.157.437-3.035 1.666-5.933 3.593-8.341.188-.236.26-.545.195-.84s-.259-.545-.529-.68l-4-2c-.421-.209-.933-.098-1.229.27-2.52 3.15-3.974 7.049-4.178 11.067-3.076-.698-5.871-2.036-8.186-3.91.732-1.373 1.671-2.645 2.802-3.776l2.05-2.05c.228-.228.332-.55.28-.867s-.253-.591-.54-.734l-4-2c-.386-.192-.85-.119-1.154.188l-2.05 2.05c-.621.621-1.172 1.29-1.688 1.981-1.014-1.989-1.554-4.146-1.554-6.325 0-6.221 4.367-11.91 11-14.513v4.513c0 .553.447 1 1 1h4c.553 0 1-.447 1-1v-5.901c.662-.059 1.329-.099 2-.099 3.344 0 6.649.757 9.559 2.19.139.068.29.103.441.103s.303-.034.441-.103c2.908-1.433 6.245-2.172 9.559-2.18v3.99c0 .553.447 1 1 1h4c.553 0 1-.447 1-1v-3.176c7.712 2.159 13 8.247 13 15.176 0 3.067-1.018 5.98-2.938 8.528-.713-2.221-1.811-4.316-3.281-6.153-.296-.368-.808-.48-1.229-.27l-4 2c-.271.135-.465.385-.529.68s.007.604.195.84c1.767 2.208 2.948 4.828 3.471 7.587-3.157 1.819-6.828 2.788-10.689 2.788zm15 4h-2v-3.597c0-3.944-1.229-7.821-3.482-11.044l2.189-1.095c2.129 2.936 3.293 6.505 3.293 10.139z"/><path d="m49.272 25.313c-3.022 3.023-7.04 4.687-11.314 4.687h-.381c-.887-2.086-2.169-4.006-3.82-5.657l-1.05-1.05-1.414 1.414 1.05 1.05c3.003 3.003 4.657 6.996 4.657 11.243h2c0-1.723-.25-3.406-.718-5.016 4.686-.083 9.082-1.934 12.425-5.277z"/></svg>