<svg id="Capa_1" enable-background="new 0 0 512 512" height="512" viewBox="0 0 512 512" width="512" xmlns="http://www.w3.org/2000/svg"><path d="m152.782 206.005c0 18.168 14.788 32.949 32.966 32.949 18.194 0 32.995-14.781 32.995-32.949 0-18.184-14.801-32.978-32.995-32.978-18.178 0-32.966 14.794-32.966 32.978zm32.966-17.977c9.922 0 17.994 8.065 17.994 17.977 0 9.897-8.072 17.949-17.994 17.949-9.906 0-17.965-8.052-17.965-17.949 0-9.912 8.059-17.977 17.965-17.977z"/><path d="m144.051 97.654c-18.194 0-32.995 14.794-32.995 32.978s14.801 32.978 32.995 32.978c18.193 0 32.994-14.794 32.994-32.978s-14.801-32.978-32.994-32.978zm0 50.955c-9.922 0-17.994-8.065-17.994-17.977 0-9.913 8.072-17.978 17.994-17.978s17.994 8.065 17.994 17.978-8.072 17.977-17.994 17.977z"/><path d="m275.563 267.826c6.23-6.227 9.661-14.507 9.661-23.318 0-8.809-3.431-17.09-9.662-23.317-2.168-2.167-4.232-3.65-6.038-4.697 8.207-14.836 13.029-31.375 14.129-48.355h37.133c3.408 14.581 16.512 25.478 32.124 25.478 18.193 0 32.994-14.794 32.994-32.978s-14.801-32.978-32.994-32.978c-15.612 0-28.716 10.897-32.124 25.478h-37.148c-1.445-22.81-9.456-44.32-23.432-62.598-1.608-2.103-3.296-4.139-5.043-6.122l22.482-22.467c5.308 3.294 11.354 4.951 17.409 4.951 8.451 0 16.908-3.211 23.353-9.633 6.23-6.227 9.661-14.508 9.661-23.318s-3.431-17.09-9.669-23.325c-12.884-12.837-33.821-12.833-46.673.008-6.23 6.227-9.661 14.507-9.661 23.317 0 6.25 1.735 12.229 4.963 17.403l-22.494 22.48c-11.64-10.189-25.265-18.054-39.918-22.901-1.41-18.801-17.154-33.666-36.304-33.666-19.16 0-34.913 14.857-36.332 33.651-14.64 4.847-28.214 12.705-39.836 23.006l-18.211-18.18c3.237-5.174 4.976-11.155 4.976-17.406 0-8.814-3.442-17.097-9.676-23.309-6.23-6.244-14.516-9.682-23.332-9.682-8.816 0-17.103 3.439-23.326 9.675-6.23 6.227-9.661 14.507-9.661 23.317s3.431 17.091 9.662 23.318c6.431 6.427 14.878 9.64 23.326 9.64 6.052 0 12.101-1.659 17.412-4.958l18.279 18.248c-11.1 12.761-19.432 27.926-24.303 44.299-2.879-.819-6.181-1.222-9.968-1.222-18.194 0-32.995 14.794-32.995 32.978s14.801 32.978 32.995 32.978c3.338 0 6.608-.495 9.731-1.46 4.699 16.574 13.086 31.889 24.346 44.732l-31.02 30.977c-12.722-7.902-29.697-6.348-40.736 4.682-12.854 12.847-12.858 33.777 0 46.664 6.43 6.426 14.876 9.639 23.323 9.639 8.45 0 16.901-3.215 23.336-9.647 11.025-11.049 12.58-28.019 4.685-40.732l31.022-30.98c3.974 3.486 8.193 6.709 12.645 9.62.176.121.352.236.528.35l.224.147c3.397 2.37 8.073 1.535 10.442-1.862 2.369-3.398 1.535-8.073-1.863-10.442-.211-.147-.421-.285-.632-.422l-.224-.147c-.064-.045-.129-.089-.195-.132-5.535-3.613-10.665-7.771-15.334-12.379-.138-.165-.281-.328-.436-.483-.14-.14-.287-.267-.435-.394-13.795-13.959-23.405-31.915-27.191-51.446-.486-2.51-2.218-4.6-4.594-5.544s-5.07-.613-7.146.88c-3.074 2.209-6.698 3.376-10.478 3.376-9.922 0-17.994-8.065-17.994-17.977 0-9.913 8.072-17.978 17.994-17.978 3.474 0 6.006.444 7.58 1.351l.174.099c2.217 1.255 5.568 3.149 9.566 1.469 4.141-1.742 5.15-5.535 6.216-9.546 9.244-34.671 34.699-61.434 68.063-71.583.448-.134.809-.229 1.098-.306 6.108-1.618 7.125-5.983 6.902-9.36-.018-.27-.043-.626-.043-1.101 0-11.81 9.616-21.417 21.435-21.417 11.804 0 21.407 9.607 21.407 21.417 0 .091-.015.209-.045.445-.626 4.833 1.789 8.527 6.482 9.888 42.83 12.284 72.743 52.016 72.743 96.622 0 17.82-4.714 35.311-13.633 50.587-1.795 3.079-4.03 6.911-2.486 11.224 1.407 3.931 4.825 5.2 6.661 5.881 1.526.566 3.255 1.208 5.519 3.471 3.395 3.393 5.265 7.906 5.265 12.707s-1.87 9.314-5.257 12.7c-7.028 7.003-18.462 7.002-25.48.007-2.674-2.672-3.256-4.404-3.724-5.795-.532-1.583-1.639-4.875-5.372-6.333-4.039-1.576-7.094.099-12.642 3.142l-1.106.606c-14.74 8.077-31.452 12.346-48.331 12.346-9.681 0-19.029-1.959-27.774-3.965-4.035-.927-8.061 1.595-8.988 5.633-.926 4.037 1.596 8.061 5.633 8.988 7.1 1.629 15.139 3.329 23.629 4.018v20.071c-14.59 3.404-25.495 16.503-25.495 32.108 0 18.184 14.801 32.978 32.995 32.978 18.193 0 32.994-14.794 32.994-32.978 0-15.605-10.904-28.704-25.494-32.108v-19.992c16.814-1.096 33.285-5.859 48.037-13.943l.262-.144c1.084 1.78 2.604 3.812 4.779 5.985 6.432 6.409 14.879 9.615 23.329 9.615 8.453-.003 16.906-3.209 23.344-9.624zm-229.873 40.775c-7.014 7.011-18.428 7.011-25.437.008-7.013-7.029-7.016-18.446-.008-25.45 3.508-3.506 8.115-5.258 12.723-5.258 4.607 0 9.215 1.753 12.722 5.258 7.009 7.004 7.006 18.421 0 25.442zm-12.51-257.558c-3.395-3.393-5.265-7.906-5.265-12.707s1.87-9.314 5.272-12.714c3.396-3.403 7.911-5.277 12.715-5.277s9.319 1.874 12.729 5.292c3.404 3.392 5.279 7.902 5.279 12.699 0 4.798-1.875 9.307-5.279 12.7-.002.002-.005.005-.008.007-7.014 7.012-18.428 7.011-25.443 0zm249.15-29.799c7.013-7.008 18.444-7.004 25.473 0 3.395 3.393 5.265 7.906 5.265 12.707s-1.87 9.314-5.257 12.7c-7.035 7.011-18.462 7.016-25.476.011 0 0 0 0-.001 0-.001-.001-.003-.002-.004-.003-3.395-3.393-5.265-7.906-5.265-12.707.001-4.802 1.87-9.315 5.265-12.708zm70.58 121.417c9.922 0 17.994 8.065 17.994 17.978 0 9.912-8.072 17.977-17.994 17.977s-17.994-8.065-17.994-17.977c0-9.914 8.072-17.978 17.994-17.978zm-166.604 185.374c0 9.913-8.072 17.977-17.994 17.977s-17.994-8.065-17.994-17.977c0-9.913 8.072-17.978 17.994-17.978s17.994 8.065 17.994 17.978z"/><path d="m479.435 361.804c-2.987 0-5.427.312-7.409.752-.281-.921-.601-1.948-.967-3.091-5.582-17.306-14.961-32.626-27.876-45.533-31.725-31.703-79.311-41.83-121.229-25.802-3.869 1.48-5.806 5.815-4.327 9.684 1.48 3.869 5.818 5.807 9.684 4.327 36.401-13.92 77.721-5.126 105.268 22.402 11.216 11.208 19.359 24.507 24.198 39.513.758 2.366 1.307 4.215 1.731 5.642 1.308 4.406 2.253 7.59 6.061 9.222 3.605 1.545 6.663-.017 7.969-.685 1.181-.604 2.799-1.43 6.897-1.43 9.685 0 17.564 7.872 17.564 17.548 0 9.692-7.879 17.576-17.564 17.576-4.229 0-5.9-.855-7.007-1.42-1.287-.658-4.301-2.198-7.884-.666-3.759 1.609-4.697 4.759-5.885 8.748-.499 1.676-1.183 3.971-2.227 7.093-8.971 26.919-29.245 48.688-55.625 59.725-26.357 11.027-56.135 10.147-81.701-2.412-3.525-1.73-6.018-3.054-7.838-4.021-4.046-2.148-7.241-3.844-11.164-1.995-3.731 1.761-4.468 5.379-4.746 6.741-.265 1.298-.707 3.472-4.367 7.13-3.313 3.32-7.721 5.148-12.414 5.148s-9.101-1.828-12.429-5.163c-3.321-3.309-5.15-7.712-5.15-12.398 0-4.687 1.829-9.09 5.157-12.406 3.56-3.558 5.689-4.003 7.098-4.297 1.51-.316 5.047-1.055 6.803-4.811 1.858-3.973.227-7.032-2.243-11.663-.869-1.629-1.95-3.656-3.328-6.378-19.302-38.139-11.932-84.089 18.339-114.341 2.163-2.162 4.497-4.282 7.133-6.482 3.18-2.654 3.607-7.384.952-10.564-2.654-3.18-7.384-3.606-10.564-.952-2.984 2.49-5.641 4.906-8.125 7.388-34.87 34.848-43.358 87.785-21.119 131.726.751 1.484 1.428 2.79 2.025 3.925-2.218 1.216-4.774 3.039-7.567 5.831-6.166 6.144-9.562 14.321-9.562 23.024s3.396 16.88 9.547 23.009c6.147 6.161 14.326 9.554 23.032 9.554s16.885-3.393 23.025-9.546c2.771-2.77 4.605-5.325 5.839-7.542 1.411.732 3.075 1.578 5.052 2.549 29.452 14.469 63.751 15.484 94.103 2.786 30.376-12.708 53.727-37.792 64.063-68.812.54-1.614.988-3.016 1.367-4.234 1.981.427 4.418.728 7.408.728 17.956 0 32.565-14.614 32.565-32.577.002-17.949-14.606-32.55-32.563-32.55z"/><path d="m395.984 416.911c8.338 0 16.676-3.172 23.024-9.516 6.161-6.157 9.555-14.336 9.555-23.031 0-8.694-3.394-16.874-9.555-23.03-12.696-12.688-33.353-12.688-46.049 0-6.161 6.157-9.555 14.336-9.555 23.031s3.393 16.874 9.554 23.031c6.349 6.343 14.687 9.515 23.026 9.515zm-12.421-44.967c3.424-3.422 7.922-5.133 12.42-5.133s8.996 1.711 12.421 5.134c3.326 3.323 5.157 7.734 5.157 12.42s-1.832 9.097-5.158 12.42c-6.849 6.844-17.993 6.844-24.841 0-3.326-3.323-5.157-7.735-5.157-12.42.001-4.687 1.832-9.098 5.158-12.421z"/><path d="m341.152 408.976c-13.766 0-24.965 11.194-24.965 24.954s11.199 24.954 24.965 24.954 24.965-11.194 24.965-24.954-11.199-24.954-24.965-24.954zm0 34.907c-5.494 0-9.965-4.465-9.965-9.953s4.47-9.953 9.965-9.953 9.964 4.465 9.964 9.953-4.469 9.953-9.964 9.953z"/><path d="m348.511 320.928c-27.671 5.32-49.746 25.437-57.607 52.503-1.156 3.978 1.132 8.139 5.111 9.294.699.203 1.402.3 2.095.3 3.251 0 6.247-2.131 7.199-5.41 6.282-21.629 23.922-37.706 46.034-41.956 4.068-.782 6.731-4.714 5.949-8.782-.781-4.068-4.711-6.732-8.781-5.949z"/></svg>