<?xml version="1.0" encoding="iso-8859-1"?>
<!-- Generator: Adobe Illustrator 19.0.0, SVG Export Plug-In . SVG Version: 6.00 Build 0)  -->
<svg version="1.1" id="Capa_1" xmlns="http://www.w3.org/2000/svg" xmlns:xlink="http://www.w3.org/1999/xlink" x="0px" y="0px"
	 viewBox="0 0 475.472 475.472" style="enable-background:new 0 0 475.472 475.472;" xml:space="preserve">
<g>
	<g>
		<path d="M284.088,456.936c-5.072,1.072-10.264,1.968-15.448,2.688l2.192,15.848c5.544-0.8,11.112-1.736,16.552-2.88
			L284.088,456.936z"/>
	</g>
</g>
<g>
	<g>
		<path d="M430.848,351.336c-29.052,49.55-76.081,85.998-131.312,101.768l4.4,15.384c59.177-16.895,109.565-55.949,140.688-109.04
			L430.848,351.336z"/>
	</g>
</g>
<g>
	<g>
		<path d="M204.64,0c-5.544,0.8-11.112,1.736-16.552,2.88l3.296,15.656c5.072-1.072,10.264-1.968,15.448-2.688L204.64,0z"/>
	</g>
</g>
<g>
	<g>
		<path d="M171.536,6.984C112.359,23.879,61.971,62.933,30.848,116.024l13.776,8.112c29.052-49.55,76.081-85.998,131.312-101.768
			L171.536,6.984z"/>
	</g>
</g>
<g>
	<g>
		<path d="M245.736,239.64v-51.68c-0.1-37.74,14.899-73.952,41.656-100.568L276.08,76.08
			c-29.769,29.608-46.457,69.894-46.344,111.88v51.68c-14.864,6.96-24,32-24,46.096c0,17.673,14.327,32,32,32
			c17.673,0,32-14.327,32-32C269.736,271.64,260.6,246.6,245.736,239.64z M237.736,301.736c-8.837,0-16-7.163-16-16
			c0-11.96,10.016-32,16-32s16,20.04,16,32C253.736,294.573,246.573,301.736,237.736,301.736z"/>
	</g>
</g>
<g>
	<g>
		<rect x="101.736" y="325.736" width="16" height="16"/>
	</g>
</g>
<g>
	<g>
		<rect x="157.736" y="381.736" width="16" height="16"/>
	</g>
</g>
<g>
	<g>
		<rect x="205.736" y="357.736" width="16" height="16"/>
	</g>
</g>
<g>
	<g>
		<rect x="301.736" y="341.736" width="16" height="16"/>
	</g>
</g>
<g>
	<g>
		<rect x="365.736" y="333.736" width="16" height="16"/>
	</g>
</g>
<g>
	<g>
		<rect x="269.736" y="389.736" width="16" height="16"/>
	</g>
</g>
<g>
	<g>
		<path d="M237.736,29.736c-114.875,0-208,93.125-208,208c0.128,114.822,93.178,207.872,208,208c114.875,0,208-93.125,208-208
			S352.611,29.736,237.736,29.736z M237.736,45.736c105.987,0.123,191.877,86.013,192,192h-152.8
			c-4.418,0.001-7.999,3.583-7.999,8.001c0,2.148,0.865,4.207,2.399,5.711c18.953,18.535,19.293,48.925,0.758,67.878
			s-48.925,19.293-67.878,0.758c-18.953-18.535-19.293-48.925-0.758-67.878c0.25-0.255,0.503-0.508,0.758-0.758
			c3.155-3.093,3.204-8.159,0.111-11.313c-1.504-1.534-3.562-2.398-5.711-2.399H45.736
			C45.859,131.749,131.749,45.859,237.736,45.736z M46.456,253.736h135.832c-3.426,5.994-5.845,12.51-7.16,19.288L156.08,292.08
			c-5.717,5.702-14.971,5.702-20.688,0l-4-4c-11.967-11.944-31.345-11.944-43.312,0c-5.791,5.52-14.897,5.52-20.688,0
			c-4.616-4.607-10.584-7.617-17.032-8.592C48.477,271.002,47.173,262.398,46.456,253.736z M237.736,429.736
			c-82.288-0.109-155.385-52.566-181.832-130.488c0.056,0.056,0.12,0.088,0.176,0.144c11.967,11.944,31.345,11.944,43.312,0
			c5.717-5.702,14.971-5.702,20.688,0l4,4c11.965,11.948,31.347,11.948,43.312,0l7.264-7.264
			c5.704,34.838,38.57,58.456,73.409,52.751c27.086-4.435,48.316-25.666,52.751-52.751l7.264,7.264
			c11.965,11.948,31.347,11.948,43.312,0l4-4c5.717-5.702,14.971-5.702,20.688,0c11.969,11.939,31.343,11.939,43.312,0
			c0.056-0.056,0.12-0.088,0.176-0.144C393.121,377.17,320.024,429.627,237.736,429.736z M425.104,279.512
			c-6.443,0.969-12.407,3.971-17.024,8.568c-5.791,5.52-14.897,5.52-20.688,0c-11.967-11.944-31.345-11.944-43.312,0l-4,4
			c-5.717,5.702-14.971,5.702-20.688,0l-19.048-19.056c-1.328-6.78-3.76-13.296-7.2-19.288h135.872
			C428.3,262.407,426.993,271.019,425.104,279.512z"/>
	</g>
</g>
<g>
</g>
<g>
</g>
<g>
</g>
<g>
</g>
<g>
</g>
<g>
</g>
<g>
</g>
<g>
</g>
<g>
</g>
<g>
</g>
<g>
</g>
<g>
</g>
<g>
</g>
<g>
</g>
<g>
</g>
</svg>
